HIERARCHY
ROOT Hips
{
  OFFSET 0 0 0
  CHANNELS 6 Xposition Yposition Zposition Zrotation Yrotation Xrotation
  JOINT LeftThigh
  {
    OFFSET 8.409438 0 -5.917753
    CHANNELS 3 Zrotation Yrotation Xrotation
    JOINT LeftLeg
    {
      OFFSET 0 0 -42.358652
      CHANNELS 3 Zrotation Yrotation Xrotation
      JOINT LeftFoot
      {
        OFFSET 0 0 -39.357303
        CHANNELS 3 Zrotation Yrotation Xrotation
      }
    }
  }
  JOINT RightThigh
  {
    OFFSET -8.409438 0 -5.917753
    CHANNELS 3 Zrotation Yrotation Xrotation
    JOINT RightLeg
    {
      OFFSET 0 0 -42.358652
      CHANNELS 3 Zrotation Yrotation Xrotation
      JOINT RightFoot
      {
        OFFSET 0 0 -39.357303
        CHANNELS 3 Zrotation Yrotation Xrotation
      }
    }
  }
  JOINT SpineLow
  {
    OFFSET 0 0 4.719101
    CHANNELS 3 Zrotation Yrotation Xrotation
    JOINT SpineMid
    {
      OFFSET 0 0 12.899191
      CHANNELS 3 Zrotation Yrotation Xrotation
      JOINT Chest
      {
        OFFSET 0 0 12.899191
        CHANNELS 3 Zrotation Yrotation Xrotation
        JOINT LeftShoulder
        {
          OFFSET 7.550562 1.41573 9.438202
          CHANNELS 3 Zrotation Yrotation Xrotation
          JOINT LeftArm
          {
            OFFSET 9.155056 0 4.247191
            CHANNELS 3 Zrotation Yrotation Xrotation
            JOINT LeftForearm
            {
              OFFSET 0 0 25.771955
              CHANNELS 3 Zrotation Yrotation Xrotation
              JOINT LeftHand
              {
                OFFSET 0 0 25.197169
                CHANNELS 3 Zrotation Yrotation Xrotation
              }
            }
          }
        }
        JOINT RightShoulder
        {
          OFFSET -7.550562 1.41573 9.438202
          CHANNELS 3 Zrotation Yrotation Xrotation
          JOINT RightArm
          {
            OFFSET -9.155056 0 4.247191
            CHANNELS 3 Zrotation Yrotation Xrotation
            JOINT RightForearm
            {
              OFFSET 0 0 -25.771955
              CHANNELS 3 Zrotation Yrotation Xrotation
              JOINT RightHand
              {
                OFFSET 0 0 -25.197169
                CHANNELS 3 Zrotation Yrotation Xrotation
              }
            }
          }
        }
        JOINT Neck
        {
          OFFSET 0 0 15.101124
          CHANNELS 3 Zrotation Yrotation Xrotation
          JOINT Head
          {
            OFFSET 0 0 11.325843
            CHANNELS 3 Zrotation Yrotation Xrotation
          }
        }
      }
    }
  }
}
MOTION
Frames: 18
Frame Time: 0.01
0.0  94.382019  0.0  178.565271  -58.947295  87.527752  0.253624  -8.403155  6.051402  6.484416  -0.676801  1.846958  -0.964705  1.03034  -2.739595  -12.907139  13.513614  7.547994  -5.285685  1.991246  3.978671  -8.442385  1.498706  6.31529  0.018784  0.227949  1.191162  0.062557  0.621977  3.256188  0.062557  0.621977  3.256188  7.890453  12.198902  5.756494  140.339811  36.953401  168.940608  -31.921869  8.477042  93.104324  80.615803  6.921658  13.053907  0.588589  -5.456729  7.296927  44.538234  26.508815  8.498824  -47.520221  -1.908804  -89.439038  83.564105  26.463046  3.586608  1.137207  -1.793892  1.135588  0.856173  -1.343317  0.854965  
0.0  94.382019  0.0  178.518566  -58.913483  87.542473  0.19485  -8.359628  6.085112  6.494998  -0.643426  1.85829  -0.974021  0.981959  -2.682709  -12.936206  13.565296  7.519548  -5.180833  1.981017  4.075084  -8.404485  1.499357  6.319143  0.022402  0.227933  1.190377  0.072436  0.621755  3.254077  0.072436  0.621755  3.254077  7.888073  12.177313  5.755242  140.46526  36.928257  169.051556  -31.901851  8.475712  93.101159  80.598217  6.870499  13.006678  0.564694  -5.46149  7.295256  44.612783  26.545246  8.541413  -47.491337  -1.915714  -89.476672  83.587988  26.431341  3.668761  1.174774  -1.761087  1.193381  0.884455  -1.318533  0.898355  
0.0  94.382019  0.0  178.509771  -58.894609  87.521312  0.121294  -8.335684  6.12755  6.437389  -0.631935  1.883472  -0.957043  0.918526  -2.640046  -12.974419  13.592833  7.504911  -5.07518  1.985342  4.159657  -8.37243  1.489299  6.321832  0.03039  0.228889  1.183807  0.094249  0.623985  3.236193  0.094249  0.623985  3.236193  7.881079  12.131085  5.795085  140.488516  36.909739  169.108911  -31.929438  8.477754  93.099348  80.583376  6.813617  13.000054  0.532126  -5.48591  7.326756  44.593562  26.554031  8.555149  -47.469838  -1.912942  -89.49866  83.583971  26.428313  3.678585  1.161018  -1.78131  1.26219  0.874378  -1.333597  0.949955  
0.0  94.382019  0.0  178.501692  -58.846737  87.486238  0.055019  -8.298705  6.180369  6.333914  -0.664971  1.951109  -0.872901  0.878986  -2.668075  -12.966949  13.618615  7.500802  -5.019521  1.98552  4.257565  -8.337503  1.489462  6.319814  0.041497  0.227937  1.179349  0.124514  0.62085  3.224111  0.124514  0.620849  3.224111  7.85167  12.083669  5.831299  140.61236  36.885681  169.228055  -31.928791  8.494208  93.100398  80.570072  6.772109  13.002488  0.488522  -5.510963  7.365087  44.631088  26.596739  8.58234  -47.408955  -1.910977  -89.545988  83.607807  26.392182  3.762384  1.179424  -1.758652  1.340703  0.888363  -1.316415  1.008847  
0.0  94.382019  0.0  178.505279  -58.77723  87.442682  -0.011425  -8.254064  6.21718  6.258318  -0.739252  2.037971  -0.779964  0.881021  -2.687615  -12.943615  13.632015  7.504316  -4.954238  2.000801  4.334565  -8.319412  1.480883  6.318588  0.056372  0.228113  1.174576  0.165126  0.620616  3.211202  0.165126  0.620616  3.211202  7.828871  12.037733  5.861678  140.67505  36.874407  169.300498  -31.948391  8.524514  93.106986  80.561994  6.735199  13.018859  0.472463  -5.546547  7.384181  44.620657  26.621534  8.607817  -47.396859  -1.909699  -89.556445  83.601603  26.386118  3.760577  1.173978  -1.780092  1.409998  0.884526  -1.332375  1.060839  
0.0  94.382019  0.0  178.537105  -58.72149  87.372203  -0.073163  -8.205201  6.225838  6.210497  -0.840897  2.13889  -0.72382  0.876174  -2.686768  -12.921484  13.637163  7.515726  -4.935784  2.009654  4.42235  -8.293333  1.477611  6.313341  0.065164  0.223348  1.171762  0.188896  0.607177  3.203576  0.188896  0.607177  3.203577  7.821714  12.010128  5.868941  140.78273  36.862286  169.401513  -31.943698  8.54837  93.105887  80.545221  6.697603  13.013165  0.412848  -5.587336  7.40162  44.759125  26.70044  8.680858  -47.375624  -1.920008  -89.574421  83.632918  26.347839  3.836795  1.2082  -1.757036  1.487322  0.910363  -1.314852  1.118883  
0.0  94.382019  0.0  178.545962  -58.625062  87.32871  -0.077936  -8.145282  6.21421  6.240884  -0.938238  2.250259  -0.71405  0.883742  -2.700273  -12.877842  13.645753  7.523108  -4.898257  2.026598  4.498911  -8.275664  1.463728  6.301999  0.079121  0.221334  1.169141  0.226914  0.601008  3.196531  0.226914  0.601008  3.196532  7.825745  11.990145  5.849556  140.809657  36.848946  169.435763  -31.955668  8.553555  93.103047  80.519713  6.637997  13.004386  0.415811  -5.612583  7.392353  44.789843  26.741756  8.725891  -47.375768  -1.910182  -89.567524  83.622273  26.342067  3.828085  1.225375  -1.768093  1.549805  0.92345  -1.322979  1.165813  
0.0  94.382019  0.0  178.582775  -58.581232  87.254758  -0.099731  -8.102863  6.203781  6.32854  -1.026663  2.37052  -0.733361  0.8686  -2.70691  -12.8899  13.64336  7.546691  -4.838416  2.056278  4.554912  -8.280398  1.442476  6.313001  0.080545  0.214628  1.167938  0.230472  0.582616  3.19323  0.230472  0.582616  3.19323  7.858257  11.982217  5.818916  140.857996  36.834317  169.485643  -31.965539  8.5525  93.088464  80.496859  6.577649  12.981132  0.409499  -5.631251  7.3835  44.907588  26.811655  8.794959  -47.35792  -1.906311  -89.577144  83.642672  26.298767  3.883204  1.274117  -1.743091  1.624099  0.960156  -1.303951  1.221621  
0.0  94.382019  0.0  178.58395  -58.509796  87.219548  -0.06134  -8.065987  6.197544  6.461906  -1.095903  2.471084  -0.82922  0.867502  -2.683125  -12.880971  13.656674  7.557796  -4.787157  2.078632  4.633732  -8.264391  1.413705  6.297547  0.089745  0.214045  1.161355  0.255526  0.580607  3.175313  0.255526  0.580607  3.175313  7.878069  11.951665  5.811026  140.848713  36.814605  169.49287  -31.985098  8.541087  93.080069  80.471531  6.511736  12.949662  0.401598  -5.654936  7.397019  44.949508  26.857704  8.835095  -47.347594  -1.89356  -89.572692  83.629843  26.282065  3.87887  1.305168  -1.752268  1.70437  0.983697  -1.310581  1.281928  
0.0  94.382019  0.0  178.608476  -58.509043  87.158349  -0.094771  -8.057116  6.214363  6.583573  -1.132687  2.563927  -0.877561  0.839702  -2.696428  -12.943796  13.672435  7.574381  -4.674244  2.10738  4.696313  -8.292301  1.373125  6.314313  0.085145  0.209538  1.156596  0.242698  0.56853  3.162245  0.242698  0.568529  3.162245  7.899299  11.928505  5.799066  140.90424  36.797163  169.546158  -31.982503  8.531902  93.061356  80.441113  6.440416  12.914811  0.427115  -5.657102  7.398153  45.003142  26.906385  8.880597  -47.284528  -1.886485  -89.597292  83.643161  26.240504  3.962685  1.36826  -1.72448  1.795686  1.031196  -1.289361  1.350532  
0.0  94.382019  0.0  178.606425  -58.486467  87.134064  -0.08338  -8.043304  6.223624  6.656147  -1.164831  2.639638  -0.903316  0.817025  -2.667636  -13.009161  13.699657  7.564142  -4.556408  2.121046  4.802194  -8.284487  1.333914  6.297437  0.088087  0.210546  1.146516  0.2507  0.571182  3.134721  0.2507  0.571182  3.134721  7.897817  11.886184  5.806868  140.902458  36.787384  169.555695  -32.003303  8.530312  93.036605  80.41827  6.355892  12.876537  0.410469  -5.691801  7.420839  45.035748  26.95474  8.91973  -47.263145  -1.896335  -89.597356  83.62559  26.229006  3.957774  1.413002  -1.730715  1.888409  1.065032  -1.293693  1.42021  
0.0  94.382019  0.0  178.636695  -58.507166  87.092687  -0.117263  -8.046955  6.221106  6.703002  -1.193995  2.709784  -0.888678  0.779389  -2.620056  -13.094898  13.723794  7.523258  -4.388687  2.13095  4.915365  -8.338072  1.286449  6.318994  0.082512  0.2074  1.135362  0.235221  0.56289  3.104172  0.235221  0.56289  3.104172  7.910821  11.86323  5.809474  140.942091  36.786388  169.595563  -31.9894  8.509091  93.001121  80.394073  6.289618  12.822962  0.453785  -5.698347  7.42727  45.092801  27.007899  8.971378  -47.244575  -1.935143  -89.601339  83.642285  26.187572  4.022399  1.466458  -1.71018  1.9928  1.105353  -1.277879  1.498603  
0.0  94.382019  0.0  178.647451  -58.489182  87.07967  -0.100252  -8.042185  6.1941  6.699772  -1.236761  2.787523  -0.825135  0.745671  -2.559698  -13.198251  13.733218  7.459931  -4.208947  2.149815  5.073527  -8.344373  1.248861  6.296356  0.086078  0.208584  1.121535  0.244905  0.56601  3.066411  0.244905  0.56601  3.066411  7.882346  11.821831  5.815349  140.945023  36.78919  169.60017  -32.018628  8.478258  92.950668  80.383156  6.212571  12.796886  0.441348  -5.751444  7.44129  45.129601  27.062685  9.029497  -47.230184  -1.963213  -89.598444  83.633075  26.169384  4.013082  1.540571  -1.708498  2.085263  1.16119  -1.276145  1.56815  
0.0  94.382019  0.0  178.703745  -58.536792  87.040768  -0.143892  -8.059003  6.138051  6.689955  -1.276686  2.890414  -0.752357  0.689597  -2.497508  -13.322476  13.729019  7.348196  -4.028664  2.160626  5.268942  -8.388268  1.21197  6.310493  0.078903  0.203423  1.107579  0.224941  0.552288  3.028181  0.224941  0.552288  3.028181  7.892232  11.824479  5.810292  140.956995  36.814826  169.616608  -32.000825  8.419546  92.886487  80.385994  6.124201  12.76098  0.482917  -5.764967  7.434226  45.253367  27.153209  9.124648  -47.240429  -2.016434  -89.594367  83.655752  26.100831  4.109739  1.618873  -1.680968  2.184091  1.220095  -1.25497  1.642418  
0.0  94.382019  0.0  178.726248  -58.55912  87.03952  -0.145053  -8.058557  6.052761  6.659718  -1.327148  3.024994  -0.668838  0.622522  -2.43373  -13.487851  13.718388  7.222337  -3.825296  2.182258  5.504607  -8.391819  1.184703  6.28536  0.076524  0.203647  1.093014  0.21833  0.553059  2.988349  0.218329  0.553059  2.988349  7.844147  11.804635  5.794458  140.947673  36.846938  169.592116  -32.036717  8.348681  92.813153  80.388578  6.022165  12.722609  0.461478  -5.810267  7.448735  45.325906  27.228684  9.182982  -47.237  -2.036936  -89.593456  83.62489  26.071825  4.101254  1.740366  -1.66815  2.259456  1.311372  -1.244711  1.69924  
0.0  94.382019  0.0  178.790524  -58.63789  87.013531  -0.193776  -8.063848  5.937273  6.655149  -1.403592  3.18363  -0.608789  0.56097  -2.364623  -13.632211  13.6975  7.038686  -3.675896  2.185286  5.805769  -8.403066  1.172661  6.290028  0.066785  0.198754  1.079641  0.191383  0.540168  2.951696  0.191383  0.540168  2.951696  7.822155  11.827444  5.764407  140.941179  36.911727  169.572541  -32.033438  8.2472  92.730805  80.37759  5.905484  12.632567  0.546762  -5.790047  7.421767  45.464774  27.325287  9.259601  -47.248809  -2.094936  -89.58965  83.621942  25.966497  4.244125  1.881354  -1.63035  2.332955  1.41717  -1.215616  1.754637  
0.0  94.382019  0.0  178.816592  -58.682235  87.027543  -0.195593  -8.042499  5.784784  6.631828  -1.512841  3.385617  -0.55117  0.505152  -2.304809  -13.814085  13.682429  6.850037  -3.496825  2.18812  6.118272  -8.375404  1.168016  6.276682  0.061866  0.197149  1.066103  0.17776  0.536039  2.914648  0.17776  0.536039  2.914648  7.759641  11.838897  5.736005  140.938094  36.987754  169.543923  -32.061929  8.136507  92.634734  80.370887  5.75501  12.4781  0.531648  -5.826309  7.415769  45.538215  27.417468  9.314127  -47.234779  -2.169686  -89.581968  83.584849  25.916719  4.226049  2.055731  -1.601325  2.392194  1.547995  -1.192985  1.79944  
0.0  94.382019  0.0  178.875582  -58.763898  87.023703  -0.212953  -8.022305  5.582538  6.619519  -1.65148  3.633113  -0.520986  0.428412  -2.236774  -13.947911  13.639838  6.580782  -3.393086  2.198773  6.504277  -8.350265  1.1663  6.300267  0.054912  0.192249  1.054469  0.158448  0.522985  2.882775  0.158448  0.522985  2.882775  7.740073  11.922697  5.689077  140.867684  37.155857  169.468403  -32.045476  8.012333  92.510731  80.403138  5.578928  12.271783  0.606243  -5.830703  7.356483  45.704228  27.555047  9.414753  -47.220269  -2.296408  -89.574067  83.610884  25.768816  4.391462  2.24689  -1.54931  2.444627  1.691295  -1.153036  1.839085  
